<svg xmlns="http://www.w3.org/2000/svg" xmlns:xlink="http://www.w3.org/1999/xlink" viewBox="0 0 792 792">
<path fill-rule="nonzero" fill="rgb(0%, 0%, 0%)" fill-opacity="1" d="M 0 791.996094 L 791.878906 791.996094 L 791.878906 0 L 0 0 Z M 0 791.996094 "/>
<path fill-rule="nonzero" fill="rgb(100%, 100%, 100%)" fill-opacity="1" d="M 308.28125 347.460938 C 308.765625 347.460938 309.140625 347.464844 309.511719 347.460938 C 310.703125 347.4375 311.894531 347.355469 313.082031 347.394531 C 314.179688 347.429688 314.957031 348.222656 315.023438 349.222656 C 315.09375 350.222656 314.429688 351.152344 313.328125 351.269531 C 311.601562 351.449219 309.859375 351.566406 308.125 351.519531 C 306.929688 351.488281 306.347656 351.871094 305.996094 353.019531 C 305.574219 354.40625 304.9375 355.722656 304.398438 357.070312 C 304.304688 357.304688 304.226562 357.550781 304.101562 357.914062 C 304.492188 357.914062 304.789062 357.917969 305.085938 357.914062 C 310.515625 357.832031 315.941406 357.742188 321.371094 357.671875 C 321.816406 357.664062 322.28125 357.6875 322.710938 357.796875 C 323.585938 358.023438 324.140625 358.769531 324.160156 359.621094 C 324.175781 360.464844 323.644531 361.25 322.78125 361.5 C 322.3125 361.640625 321.796875 361.679688 321.304688 361.6875 C 315.28125 361.78125 309.257812 361.871094 303.234375 361.933594 C 302.652344 361.941406 302.34375 362.105469 302.132812 362.675781 C 301.511719 364.339844 300.824219 365.984375 300.101562 367.78125 C 300.589844 367.78125 300.957031 367.785156 301.324219 367.777344 C 305.25 367.703125 309.179688 367.621094 313.109375 367.546875 C 313.511719 367.539062 313.921875 367.542969 314.316406 367.617188 C 315.300781 367.8125 315.945312 368.578125 315.964844 369.503906 C 315.988281 370.460938 315.347656 371.253906 314.339844 371.488281 C 314.0625 371.550781 313.773438 371.570312 313.488281 371.574219 C 308.679688 371.664062 303.871094 371.746094 299.0625 371.847656 C 298.824219 371.851562 298.445312 371.976562 298.371094 372.148438 C 297.65625 373.828125 296.988281 375.53125 296.265625 377.339844 C 296.667969 377.359375 296.960938 377.382812 297.257812 377.382812 C 307.6875 377.386719 318.117188 377.386719 328.546875 377.398438 C 329.089844 377.402344 329.652344 377.414062 330.175781 377.542969 C 331.394531 377.839844 332.167969 378.863281 332.136719 380.027344 C 332.109375 381.203125 331.296875 382.175781 330.070312 382.429688 C 329.609375 382.527344 329.125 382.550781 328.652344 382.550781 C 317.484375 382.546875 306.316406 382.539062 295.148438 382.503906 C 294.40625 382.5 294.074219 382.730469 293.800781 383.417969 C 289.53125 394.117188 285.230469 404.804688 280.941406 415.496094 C 280.835938 415.75 280.75 416.015625 280.613281 416.402344 C 281.011719 416.402344 281.308594 416.402344 281.605469 416.402344 C 302.347656 416.347656 323.085938 416.289062 343.828125 416.234375 C 344.375 416.234375 344.925781 416.222656 345.46875 416.277344 C 346.859375 416.417969 347.847656 417.464844 347.855469 418.761719 C 347.867188 420.058594 346.890625 421.15625 345.507812 421.285156 C 344.5625 421.375 343.605469 421.347656 342.652344 421.355469 C 321.578125 421.421875 300.507812 421.488281 279.433594 421.535156 C 278.722656 421.539062 278.40625 421.769531 278.144531 422.421875 C 274.851562 430.691406 271.527344 438.949219 268.199219 447.207031 C 267.988281 447.734375 267.746094 448.265625 267.414062 448.71875 C 266.722656 449.65625 265.570312 449.957031 264.542969 449.554688 C 263.546875 449.160156 262.902344 448.191406 263.019531 447.058594 C 263.085938 446.433594 263.296875 445.804688 263.53125 445.214844 C 271.46875 425.421875 279.414062 405.632812 287.359375 385.84375 C 294.0625 369.148438 300.765625 352.449219 307.472656 335.753906 C 307.683594 335.226562 307.90625 334.691406 308.214844 334.21875 C 308.902344 333.160156 310.113281 332.773438 311.207031 333.199219 C 312.324219 333.632812 312.957031 334.773438 312.722656 336.039062 C 312.640625 336.503906 312.46875 336.957031 312.292969 337.398438 C 311.058594 340.492188 309.8125 343.582031 308.574219 346.675781 C 308.484375 346.894531 308.410156 347.113281 308.28125 347.460938 "/>
<path fill-rule="nonzero" fill="rgb(100%, 100%, 100%)" fill-opacity="1" d="M 356.347656 453.339844 C 356.296875 453.460938 356.246094 453.542969 356.226562 453.628906 C 355.945312 454.898438 355.132812 455.617188 353.878906 455.804688 C 352.585938 455.996094 351.511719 455.535156 350.785156 454.449219 C 349.976562 453.238281 349.929688 451.941406 350.640625 450.664062 C 351.222656 449.625 352.109375 448.925781 353.230469 448.53125 C 358.050781 446.824219 362 450.210938 363.007812 453.367188 C 364.40625 457.753906 362.5625 461.707031 358.128906 463.164062 C 353.9375 464.539062 349.621094 464.84375 345.359375 463.347656 C 341.230469 461.894531 337.140625 460.3125 333.027344 458.808594 C 329.753906 457.605469 326.421875 456.671875 322.898438 456.519531 C 321.089844 456.445312 319.410156 456.707031 317.777344 457.503906 C 314.027344 459.339844 310.183594 460.953125 306.035156 461.65625 C 301.5 462.429688 297.046875 462.394531 292.707031 460.539062 C 290.304688 459.511719 287.851562 458.515625 285.328125 457.871094 C 279.179688 456.3125 273.097656 456.679688 267.207031 459.15625 C 266.664062 459.382812 266.164062 459.722656 265.648438 460.019531 C 265.339844 460.195312 265.046875 460.414062 264.722656 460.558594 C 263.582031 461.0625 262.335938 460.761719 261.632812 459.835938 C 260.949219 458.9375 260.90625 457.613281 261.746094 456.738281 C 262.4375 456.015625 263.28125 455.359375 264.175781 454.914062 C 267.492188 453.273438 271.011719 452.328125 274.710938 451.996094 C 280.867188 451.445312 286.773438 452.3125 292.417969 454.871094 C 292.761719 455.03125 293.132812 455.140625 293.476562 455.304688 C 298.527344 457.726562 303.660156 457.320312 308.78125 455.644531 C 310.902344 454.953125 313.007812 454.121094 314.984375 453.097656 C 318.078125 451.492188 321.300781 451.167969 324.691406 451.484375 C 327.875 451.78125 330.925781 452.589844 333.914062 453.664062 C 337.921875 455.109375 341.949219 456.519531 345.898438 458.113281 C 349.109375 459.410156 352.316406 459.242188 355.582031 458.59375 C 356.0625 458.5 356.546875 458.304688 356.972656 458.0625 C 357.789062 457.597656 358.433594 457.003906 358.308594 455.910156 C 358.164062 454.660156 357.5625 453.800781 356.347656 453.339844 "/>
<path fill-rule="nonzero" fill="rgb(100%, 100%, 100%)" fill-opacity="1" d="M 311.414062 400.460938 C 311.710938 402.613281 311.960938 404.539062 312.261719 406.460938 C 312.289062 406.632812 312.609375 406.894531 312.789062 406.890625 C 314.976562 406.839844 317.160156 406.757812 319.34375 406.636719 C 319.542969 406.625 319.890625 406.261719 319.890625 406.058594 C 319.90625 401.917969 320.054688 397.765625 318.960938 393.710938 C 318.929688 393.597656 318.894531 393.480469 318.863281 393.367188 C 318.550781 392.21875 317.851562 391.597656 316.628906 391.394531 C 312.769531 390.746094 308.996094 390.988281 305.269531 392.167969 C 304.550781 392.394531 304.003906 392.777344 303.851562 393.519531 C 303.558594 394.9375 303.167969 396.359375 303.109375 397.789062 C 302.964844 401.28125 302.992188 404.785156 302.9375 408.285156 C 302.929688 408.660156 302.890625 409.050781 302.769531 409.402344 C 302.496094 410.195312 301.90625 410.644531 301.066406 410.707031 C 300.265625 410.769531 299.492188 410.320312 299.199219 409.535156 C 299.023438 409.054688 298.921875 408.515625 298.925781 408.007812 C 298.949219 404.386719 298.964844 400.769531 299.078125 397.152344 C 299.136719 395.320312 299.488281 393.515625 300.179688 391.792969 C 300.851562 390.113281 302.019531 388.996094 303.734375 388.429688 C 308.28125 386.925781 312.894531 386.628906 317.613281 387.476562 C 320.28125 387.957031 321.867188 389.539062 322.664062 392.035156 C 323.503906 394.664062 323.789062 397.390625 323.882812 400.132812 C 323.957031 402.175781 323.957031 404.226562 323.945312 406.273438 C 323.933594 408.4375 322.589844 410.136719 320.460938 410.539062 C 317.519531 411.097656 314.539062 411.097656 311.566406 410.820312 C 310.078125 410.683594 309.042969 409.769531 308.617188 408.355469 C 307.75 405.484375 307.429688 402.523438 307.617188 399.53125 C 307.710938 398.011719 308.964844 396.871094 310.769531 396.609375 C 311.796875 396.457031 312.859375 396.433594 313.898438 396.472656 C 315.199219 396.523438 316.050781 397.417969 316.011719 398.523438 C 315.972656 399.621094 315.125 400.398438 313.851562 400.457031 C 313.121094 400.488281 312.390625 400.460938 311.414062 400.460938 "/>
<path fill-rule="nonzero" fill="rgb(100%, 100%, 100%)" fill-opacity="1" d="M 311.960938 441.984375 C 309.261719 442.054688 306.863281 439.476562 306.929688 436.765625 C 306.996094 433.929688 309.183594 431.6875 312.089844 431.671875 C 314.992188 431.660156 317.207031 434.011719 317.25 436.773438 C 317.296875 439.535156 314.8125 442.058594 311.960938 441.984375 "/>
<path fill-rule="nonzero" fill="rgb(100%, 100%, 100%)" fill-opacity="1" d="M 311.960938 441.042969 L 311.984375 441.042969 C 313.085938 441.0625 314.1875 440.613281 315.027344 439.78125 C 315.863281 438.953125 316.332031 437.863281 316.3125 436.789062 C 316.273438 434.480469 314.390625 432.613281 312.113281 432.613281 L 312.09375 432.613281 C 309.742188 432.625 307.925781 434.417969 307.867188 436.789062 C 307.84375 437.867188 308.328125 439.011719 309.167969 439.851562 C 309.953125 440.636719 310.976562 441.09375 311.9375 441.042969 Z M 312.078125 442.925781 C 312.003906 442.925781 311.929688 442.921875 311.855469 442.921875 C 310.414062 442.921875 308.957031 442.292969 307.84375 441.183594 C 306.625 439.96875 305.953125 438.351562 305.992188 436.742188 C 306.074219 433.332031 308.691406 430.75 312.085938 430.734375 L 312.113281 430.734375 C 315.410156 430.734375 318.136719 433.429688 318.191406 436.757812 C 318.21875 438.339844 317.546875 439.929688 316.347656 441.117188 C 315.183594 442.269531 313.636719 442.925781 312.078125 442.925781 "/>
<path fill-rule="nonzero" fill="rgb(100%, 100%, 100%)" fill-opacity="1" d="M 291.929688 436.738281 C 291.945312 439.53125 289.714844 441.800781 286.925781 441.832031 C 284.152344 441.863281 281.777344 439.558594 281.75 436.800781 C 281.722656 433.96875 283.945312 431.730469 286.808594 431.707031 C 289.648438 431.679688 291.917969 433.90625 291.929688 436.738281 "/>
<path fill-rule="nonzero" fill="rgb(100%, 100%, 100%)" fill-opacity="1" d="M 286.855469 432.644531 L 286.816406 432.644531 C 285.671875 432.652344 284.617188 433.09375 283.847656 433.878906 C 283.089844 434.648438 282.679688 435.683594 282.691406 436.792969 C 282.699219 437.867188 283.148438 438.890625 283.949219 439.679688 C 284.765625 440.472656 285.789062 440.894531 286.914062 440.894531 C 289.171875 440.867188 291.003906 439.003906 290.992188 436.742188 C 290.988281 435.628906 290.554688 434.59375 289.777344 433.828125 C 289.003906 433.0625 287.964844 432.644531 286.855469 432.644531 M 286.867188 442.769531 C 285.292969 442.769531 283.792969 442.152344 282.636719 441.019531 C 281.476562 439.882812 280.828125 438.386719 280.8125 436.808594 C 280.796875 435.199219 281.398438 433.691406 282.507812 432.5625 C 283.628906 431.417969 285.152344 430.78125 286.796875 430.765625 C 288.429688 430.753906 289.953125 431.363281 291.097656 432.488281 C 292.234375 433.609375 292.863281 435.117188 292.871094 436.734375 C 292.886719 440.023438 290.226562 442.734375 286.9375 442.769531 Z M 286.867188 442.769531 "/>
<path fill-rule="nonzero" fill="rgb(100%, 100%, 100%)" fill-opacity="1" d="M 337.835938 432.117188 C 340.707031 431.882812 342.941406 434.683594 342.910156 437.078125 C 342.875 439.59375 340.8125 442.070312 337.855469 442.0625 C 334.925781 442.050781 332.808594 439.609375 332.796875 437.066406 C 332.785156 434.3125 335.136719 431.929688 337.835938 432.117188 "/>
<path fill-rule="nonzero" fill="rgb(100%, 100%, 100%)" fill-opacity="1" d="M 337.539062 433.046875 C 336.636719 433.046875 335.757812 433.40625 335.046875 434.074219 C 334.207031 434.859375 333.730469 435.945312 333.738281 437.0625 C 333.746094 439.015625 335.402344 441.113281 337.859375 441.121094 L 337.875 441.121094 C 340.371094 441.121094 341.945312 439.019531 341.96875 437.0625 C 341.984375 436.039062 341.4375 434.859375 340.574219 434.054688 C 339.800781 433.332031 338.863281 432.96875 337.914062 433.054688 L 337.84375 433.058594 L 337.773438 433.054688 C 337.695312 433.050781 337.617188 433.046875 337.539062 433.046875 M 337.875 443 L 337.855469 443 C 334.5625 442.988281 331.871094 440.328125 331.859375 437.070312 C 331.851562 435.433594 332.542969 433.84375 333.761719 432.703125 C 334.902344 431.632812 336.351562 431.101562 337.832031 431.175781 C 339.289062 431.066406 340.710938 431.609375 341.855469 432.679688 C 343.105469 433.847656 343.867188 435.535156 343.847656 437.089844 C 343.808594 439.9375 341.515625 443 337.875 443 "/>
<path fill-rule="nonzero" fill="rgb(100%, 100%, 100%)" fill-opacity="1" d="M 516.136719 386.550781 L 550.820312 342.148438 L 535.992188 342.148438 L 503.101562 385.644531 L 508.792969 396.726562 L 511.589844 402.003906 L 537.898438 451.625 L 552.332031 451.625 Z M 516.136719 386.550781 "/>
<path fill-rule="nonzero" fill="rgb(100%, 100%, 100%)" fill-opacity="1" d="M 494.9375 396.4375 L 494.9375 342.148438 L 484.011719 342.148438 L 484.011719 451.625 L 494.9375 451.625 L 494.9375 413.691406 L 494.957031 413.664062 Z M 494.9375 396.4375 "/>
<path fill-rule="nonzero" fill="rgb(100%, 100%, 100%)" fill-opacity="1" d="M 403.691406 382.351562 C 402.601562 380.007812 401.472656 377.632812 400.273438 375.191406 L 384.046875 342.148438 L 370.691406 342.148438 L 396.832031 393.980469 Z M 403.691406 382.351562 "/>
<path fill-rule="nonzero" fill="rgb(100%, 100%, 100%)" fill-opacity="1" d="M 229.546875 343.136719 L 216.574219 413.316406 L 209.976562 452.613281 L 217.832031 452.613281 L 240.546875 343.136719 Z M 229.546875 343.136719 "/>
<path fill-rule="nonzero" fill="rgb(100%, 100%, 100%)" fill-opacity="1" d="M 628.949219 358.015625 L 623.953125 377.0625 L 632.34375 406.667969 L 632.3125 406.667969 L 635.722656 418.46875 L 635.761719 418.46875 L 645.371094 451.625 L 657.882812 451.625 Z M 628.949219 358.015625 "/>
<path fill-rule="nonzero" fill="rgb(100%, 100%, 100%)" fill-opacity="1" d="M 599.652344 385.210938 L 599.800781 385.273438 L 580.484375 451.625 L 592.015625 451.625 L 601 418.46875 L 604.226562 406.667969 L 604.195312 406.667969 L 604.902344 404.203125 L 604.914062 404.148438 L 604.917969 404.148438 L 609.210938 389.144531 L 609.332031 389.195312 L 622.851562 342.085938 L 612.351562 342.148438 Z M 599.652344 385.210938 "/>
<path fill-rule="nonzero" fill="rgb(100%, 100%, 100%)" fill-opacity="1" d="M 433.800781 342.148438 L 417.753906 374.367188 C 417.042969 375.792969 416.359375 377.179688 415.695312 378.550781 L 415.707031 378.496094 L 402.515625 405.300781 L 402.515625 451.625 L 413.445312 451.625 L 413.445312 405.25 L 446.4375 342.148438 Z M 433.800781 342.148438 "/>
<path fill-rule="nonzero" fill="rgb(100%, 100%, 100%)" fill-opacity="1" d="M 157.753906 413.28125 L 145.441406 343.136719 L 134.261719 343.136719 L 153.277344 437.738281 Z M 157.753906 413.28125 "/>
<path fill-rule="nonzero" fill="rgb(100%, 100%, 100%)" fill-opacity="1" d="M 208.574219 411.441406 C 207.800781 407.199219 206.972656 402.914062 206.042969 398.546875 L 194.253906 343.136719 L 180.976562 343.136719 L 166.128906 412.957031 L 166.144531 412.960938 L 158.683594 452.613281 L 167.320312 452.613281 L 184.847656 369.199219 C 185.675781 365.414062 186.476562 361.132812 187.253906 356.355469 L 189.867188 369.199219 L 204.253906 437.933594 Z M 208.574219 411.441406 "/>
<path fill-rule="nonzero" fill="rgb(100%, 100%, 100%)" fill-opacity="1" d="M 413.972656 484.0625 C 413.972656 479.671875 410.910156 476.683594 406.914062 476.683594 C 402.886719 476.683594 399.859375 479.671875 399.859375 484.0625 C 399.859375 488.488281 402.886719 491.441406 406.914062 491.441406 C 410.910156 491.441406 413.972656 488.488281 413.972656 484.0625 M 416.527344 484.0625 C 416.527344 489.820312 412.496094 493.710938 407.097656 493.710938 C 404.074219 493.710938 401.480469 492.414062 399.898438 489.964844 L 399.898438 500.511719 L 397.339844 500.511719 L 397.339844 474.597656 L 399.789062 474.597656 L 399.789062 478.339844 C 401.335938 475.820312 403.964844 474.453125 407.097656 474.453125 C 412.496094 474.453125 416.527344 478.339844 416.527344 484.0625 "/>
<path fill-rule="nonzero" fill="rgb(100%, 100%, 100%)" fill-opacity="1" d="M 421.75 474.597656 L 424.304688 474.597656 L 424.304688 493.53125 L 421.75 493.53125 Z M 421.171875 468.621094 C 421.171875 467.648438 422 466.820312 423.046875 466.820312 C 424.089844 466.820312 424.914062 467.613281 424.914062 468.585938 C 424.914062 469.628906 424.125 470.457031 423.046875 470.457031 C 422 470.457031 421.171875 469.628906 421.171875 468.621094 "/>
<path fill-rule="nonzero" fill="rgb(100%, 100%, 100%)" fill-opacity="1" d="M 444.789062 491.40625 L 444.789062 493.53125 L 429.382812 493.53125 L 429.382812 491.839844 L 441.296875 476.757812 L 429.597656 476.757812 L 429.597656 474.597656 L 444.570312 474.597656 L 444.570312 476.289062 L 432.65625 491.40625 Z M 444.789062 491.40625 "/>
<path fill-rule="nonzero" fill="rgb(100%, 100%, 100%)" fill-opacity="1" d="M 463.183594 491.40625 L 463.183594 493.53125 L 447.777344 493.53125 L 447.777344 491.839844 L 459.691406 476.757812 L 447.992188 476.757812 L 447.992188 474.597656 L 462.96875 474.597656 L 462.96875 476.289062 L 451.054688 491.40625 Z M 463.183594 491.40625 "/>
<path fill-rule="nonzero" fill="rgb(100%, 100%, 100%)" fill-opacity="1" d="M 479.957031 487.84375 L 479.957031 484.746094 L 474.019531 484.746094 C 470.347656 484.746094 469.160156 486.1875 469.160156 488.128906 C 469.160156 490.328125 470.921875 491.695312 473.949219 491.695312 C 476.828125 491.695312 478.949219 490.328125 479.957031 487.84375 M 482.515625 481.796875 L 482.515625 493.53125 L 480.066406 493.53125 L 480.066406 490.578125 C 478.914062 492.523438 476.683594 493.710938 473.550781 493.710938 C 469.269531 493.710938 466.640625 491.476562 466.640625 488.203125 C 466.640625 485.285156 468.511719 482.839844 473.949219 482.839844 L 479.957031 482.839844 L 479.957031 481.6875 C 479.957031 478.449219 478.125 476.683594 474.59375 476.683594 C 472.148438 476.683594 469.84375 477.546875 468.296875 478.914062 L 467.144531 477.007812 C 469.050781 475.386719 471.859375 474.453125 474.847656 474.453125 C 479.742188 474.453125 482.515625 476.902344 482.515625 481.796875 "/>
<path fill-rule="nonzero" fill="rgb(100%, 100%, 100%)" fill-opacity="1" d="M 510.628906 487.84375 L 510.628906 484.746094 L 504.691406 484.746094 C 501.019531 484.746094 499.832031 486.1875 499.832031 488.128906 C 499.832031 490.328125 501.59375 491.695312 504.617188 491.695312 C 507.5 491.695312 509.621094 490.328125 510.628906 487.84375 M 513.1875 481.796875 L 513.1875 493.53125 L 510.738281 493.53125 L 510.738281 490.578125 C 509.585938 492.523438 507.355469 493.710938 504.222656 493.710938 C 499.941406 493.710938 497.3125 491.476562 497.3125 488.203125 C 497.3125 485.285156 499.183594 482.839844 504.617188 482.839844 L 510.628906 482.839844 L 510.628906 481.6875 C 510.628906 478.449219 508.792969 476.683594 505.265625 476.683594 C 502.820312 476.683594 500.515625 477.546875 498.96875 478.914062 L 497.816406 477.007812 C 499.722656 475.386719 502.53125 474.453125 505.519531 474.453125 C 510.414062 474.453125 513.1875 476.902344 513.1875 481.796875 "/>
<path fill-rule="nonzero" fill="rgb(100%, 100%, 100%)" fill-opacity="1" d="M 529.675781 474.453125 L 529.675781 476.9375 C 529.457031 476.9375 529.242188 476.898438 529.0625 476.898438 C 525.101562 476.898438 522.691406 479.417969 522.691406 483.882812 L 522.691406 493.53125 L 520.136719 493.53125 L 520.136719 474.597656 L 522.582031 474.597656 L 522.582031 478.304688 C 523.769531 475.785156 526.183594 474.453125 529.675781 474.453125 "/>
<path fill-rule="nonzero" fill="rgb(100%, 100%, 100%)" fill-opacity="1" d="M 545.082031 492.378906 C 544.074219 493.277344 542.5625 493.710938 541.085938 493.710938 C 537.523438 493.710938 535.542969 491.695312 535.542969 488.203125 L 535.542969 476.757812 L 532.160156 476.757812 L 532.160156 474.597656 L 535.542969 474.597656 L 535.542969 470.457031 L 538.097656 470.457031 L 538.097656 474.597656 L 543.855469 474.597656 L 543.855469 476.757812 L 538.097656 476.757812 L 538.097656 488.058594 C 538.097656 490.289062 539.25 491.515625 541.375 491.515625 C 542.417969 491.515625 543.460938 491.191406 544.179688 490.542969 Z M 545.082031 492.378906 "/>
<path fill-rule="nonzero" fill="rgb(100%, 100%, 100%)" fill-opacity="1" d="M 549.691406 482.949219 L 563.117188 482.949219 C 562.792969 479.238281 560.09375 476.648438 556.386719 476.648438 C 552.714844 476.648438 550.015625 479.238281 549.691406 482.949219 M 565.527344 484.855469 L 549.691406 484.855469 C 549.976562 488.8125 553.003906 491.441406 557.140625 491.441406 C 559.445312 491.441406 561.496094 490.613281 562.9375 488.957031 L 564.375 490.613281 C 562.683594 492.628906 560.058594 493.710938 557.070312 493.710938 C 551.167969 493.710938 547.132812 489.679688 547.132812 484.0625 C 547.132812 478.449219 551.058594 474.453125 556.386719 474.453125 C 561.710938 474.453125 565.5625 478.375 565.5625 484.0625 C 565.5625 484.28125 565.527344 484.566406 565.527344 484.855469 "/>
<path fill-rule="nonzero" fill="rgb(100%, 100%, 100%)" fill-opacity="1" d="M 568.160156 491.371094 L 569.3125 489.355469 C 570.824219 490.542969 573.378906 491.476562 576.042969 491.476562 C 579.640625 491.476562 581.117188 490.253906 581.117188 488.382812 C 581.117188 483.453125 568.84375 487.339844 568.84375 479.851562 C 568.84375 476.757812 571.507812 474.453125 576.328125 474.453125 C 578.777344 474.453125 581.441406 475.136719 583.023438 476.214844 L 581.910156 478.265625 C 580.253906 477.117188 578.273438 476.648438 576.328125 476.648438 C 572.910156 476.648438 571.398438 477.980469 571.398438 479.777344 C 571.398438 484.890625 583.671875 481.039062 583.671875 488.308594 C 583.671875 491.585938 580.792969 493.710938 575.863281 493.710938 C 572.730469 493.710938 569.707031 492.703125 568.160156 491.371094 "/>
<path fill-rule="nonzero" fill="rgb(100%, 100%, 100%)" fill-opacity="1" d="M 600.125 487.84375 L 600.125 484.746094 L 594.183594 484.746094 C 590.515625 484.746094 589.328125 486.1875 589.328125 488.128906 C 589.328125 490.328125 591.089844 491.695312 594.113281 491.695312 C 596.992188 491.695312 599.117188 490.328125 600.125 487.84375 M 602.679688 481.796875 L 602.679688 493.53125 L 600.230469 493.53125 L 600.230469 490.578125 C 599.082031 492.523438 596.847656 493.710938 593.71875 493.710938 C 589.433594 493.710938 586.804688 491.476562 586.804688 488.203125 C 586.804688 485.285156 588.679688 482.839844 594.113281 482.839844 L 600.125 482.839844 L 600.125 481.6875 C 600.125 478.449219 598.289062 476.683594 594.761719 476.683594 C 592.3125 476.683594 590.011719 477.546875 588.460938 478.914062 L 587.308594 477.007812 C 589.21875 475.386719 592.027344 474.453125 595.011719 474.453125 C 599.910156 474.453125 602.679688 476.902344 602.679688 481.796875 "/>
<path fill-rule="nonzero" fill="rgb(100%, 100%, 100%)" fill-opacity="1" d="M 627.050781 482.550781 L 627.050781 493.53125 L 624.496094 493.53125 L 624.496094 482.804688 C 624.496094 478.808594 622.40625 476.757812 618.808594 476.757812 C 614.742188 476.757812 612.1875 479.277344 612.1875 483.59375 L 612.1875 493.53125 L 609.628906 493.53125 L 609.628906 474.597656 L 612.078125 474.597656 L 612.078125 478.089844 C 613.445312 475.785156 616 474.453125 619.277344 474.453125 C 623.882812 474.453125 627.050781 477.117188 627.050781 482.550781 "/>
<path fill-rule="nonzero" fill="rgb(100%, 100%, 100%)" fill-opacity="1" d="M 645.734375 487.84375 L 645.734375 484.746094 L 639.796875 484.746094 C 636.125 484.746094 634.9375 486.1875 634.9375 488.128906 C 634.9375 490.328125 636.699219 491.695312 639.726562 491.695312 C 642.605469 491.695312 644.726562 490.328125 645.734375 487.84375 M 648.292969 481.796875 L 648.292969 493.53125 L 645.84375 493.53125 L 645.84375 490.578125 C 644.691406 492.523438 642.460938 493.710938 639.328125 493.710938 C 635.046875 493.710938 632.417969 491.476562 632.417969 488.203125 C 632.417969 485.285156 634.289062 482.839844 639.726562 482.839844 L 645.734375 482.839844 L 645.734375 481.6875 C 645.734375 478.449219 643.902344 476.683594 640.371094 476.683594 C 637.925781 476.683594 635.621094 477.546875 634.074219 478.914062 L 632.921875 477.007812 C 634.828125 475.386719 637.636719 474.453125 640.625 474.453125 C 645.519531 474.453125 648.292969 476.902344 648.292969 481.796875 "/>
<path fill-rule="nonzero" fill="rgb(100%, 100%, 100%)" fill-opacity="1" d="M 655.242188 466.820312 L 657.796875 466.820312 L 657.796875 493.527344 L 655.242188 493.527344 Z M 655.242188 466.820312 "/>
</svg>
